<svg width="97" height="104" viewBox="0 0 97 104" fill="none" xmlns="http://www.w3.org/2000/svg">
<rect y="3.85187" width="96.2963" height="96.2963" fill="#FDFDFD"/>
<path d="M48.1362 38.4531C48.1362 38.7812 48.1245 39.1094 48.1011 39.4375C48.0776 39.7656 48.0425 40.0938 47.9956 40.4219C47.8315 40.6562 47.6675 40.8672 47.5034 41.0547C47.3628 41.2188 47.269 41.4297 47.2222 41.6875C46.9644 41.875 46.6714 42.1328 46.3433 42.4609C46.0386 42.7891 45.9097 43.1172 45.9565 43.4453H45.4644C45.1831 43.8672 44.855 44.2305 44.48 44.5352C44.105 44.8398 43.7065 45.1328 43.2847 45.4141L42.0542 46.2227C41.6558 46.4805 41.2808 46.7852 40.9292 47.1367C40.7417 47.1602 40.5894 47.1953 40.4722 47.2422C40.355 47.2891 40.2026 47.3008 40.0151 47.2773C39.2886 47.7461 38.5269 48.1562 37.73 48.5078C36.9565 48.8594 36.1714 49.2109 35.3745 49.5625C34.6011 49.8906 33.8276 50.2422 33.0542 50.6172C32.2808 50.9922 31.5425 51.4258 30.8394 51.918C30.769 51.8945 30.6753 51.8828 30.5581 51.8828C30.3472 51.8828 30.1362 51.918 29.9253 51.9883C29.7144 52.0352 29.5034 52.0586 29.2925 52.0586C29.1987 52.0586 29.0698 52.0469 28.9058 52.0234C28.7651 52 28.6597 51.9648 28.5894 51.918C28.4722 51.8477 28.3667 51.7422 28.2729 51.6016C28.1792 51.4609 28.1089 51.3086 28.062 51.1445C28.0151 50.957 27.98 50.7812 27.9565 50.6172C27.9331 50.4531 27.9214 50.3125 27.9214 50.1953C27.9214 50.0547 27.9331 49.9023 27.9565 49.7383C27.98 49.5742 28.0151 49.4219 28.062 49.2812C28.7417 49.2344 29.4214 49.0586 30.1011 48.7539C30.8042 48.4492 31.4722 48.1562 32.105 47.875C32.269 47.8047 32.3979 47.7227 32.4917 47.6289C32.6089 47.5117 32.7261 47.418 32.8433 47.3477C32.9604 47.2539 33.0894 47.1719 33.23 47.1016C33.3706 47.0312 33.5464 46.9961 33.7573 46.9961H33.8628C35.3394 46.3164 36.7808 45.5781 38.187 44.7812C39.6167 43.9844 41.0347 43.1758 42.4409 42.3555C42.5112 42.1445 42.6167 41.9336 42.7573 41.7227C42.9214 41.5117 43.0737 41.3125 43.2144 41.125C43.355 40.9141 43.4839 40.7031 43.6011 40.4922C43.7183 40.2812 43.7769 40.0703 43.7769 39.8594C43.7769 39.4375 43.5776 39.0859 43.1792 38.8047H43.0386C42.7573 38.8047 42.5112 38.7695 42.3003 38.6992C42.0894 38.6055 41.8901 38.5234 41.7026 38.4531C41.5151 38.3594 41.3042 38.2891 41.0698 38.2422C40.8354 38.1719 40.5659 38.1484 40.2612 38.1719C40.144 38.0781 39.9565 37.9961 39.6987 37.9258C39.4409 37.8555 39.23 37.8203 39.0659 37.8203C38.2222 37.8203 37.3901 37.8789 36.5698 37.9961C35.7495 38.0898 34.9292 38.1484 34.1089 38.1719C33.8979 38.2891 33.6987 38.3945 33.5112 38.4883C33.3237 38.582 33.1011 38.6289 32.8433 38.6289C32.7261 38.6289 32.6206 38.6289 32.5269 38.6289C32.4331 38.6055 32.3276 38.582 32.2104 38.5586C31.7651 38.7461 31.2612 38.9102 30.6987 39.0508C30.1362 39.168 29.5737 39.3203 29.0112 39.5078C28.4722 39.6719 27.9683 39.8828 27.4995 40.1406C27.0308 40.3984 26.6675 40.75 26.4097 41.1953C26.4097 41.3125 26.4331 41.418 26.48 41.5117C26.5269 41.582 26.5503 41.6758 26.5503 41.793V41.9336C26.4097 42.0742 26.3159 42.2383 26.269 42.4258C26.2222 42.5898 26.187 42.7656 26.1636 42.9531C26.1401 43.1172 26.105 43.293 26.0581 43.4805C26.0347 43.6445 25.9526 43.8086 25.812 43.9727C25.9058 44.3242 25.9526 44.7109 25.9526 45.1328C25.9526 45.6016 25.9175 46.0703 25.8472 46.5391C25.8003 47.0078 25.7769 47.4766 25.7769 47.9453C25.7769 48.3906 25.8237 48.7891 25.9175 49.1406C25.7769 49.2812 25.7183 49.4922 25.7417 49.7734C25.7651 50.0547 25.7065 50.2656 25.5659 50.4062C25.5659 50.5938 25.6128 50.7227 25.7065 50.793C25.8237 50.8633 25.894 50.9805 25.9175 51.1445C25.8237 51.543 25.7769 51.9766 25.7769 52.4453C25.7769 53.125 25.8472 53.8164 25.9878 54.5195C26.1519 55.2227 26.3394 55.9141 26.5503 56.5938C26.9253 56.4766 27.3237 56.3828 27.7456 56.3125C28.1909 56.2188 28.6128 56.1719 29.0112 56.1719C29.0815 56.1719 29.1519 56.1836 29.2222 56.207C29.2925 56.207 29.3628 56.207 29.4331 56.207C29.48 56.4648 29.5737 56.6992 29.7144 56.9102C29.855 57.1211 29.9839 57.3555 30.1011 57.6133C29.9839 57.7773 29.8784 57.9062 29.7847 58C29.7144 58.1172 29.6792 58.2695 29.6792 58.457C29.3511 58.4805 29.0815 58.5625 28.8706 58.7031C28.6597 58.8672 28.4253 59.043 28.1675 59.2305H28.0269C27.6284 59.2305 27.3003 59.3008 27.0425 59.4414C26.7847 59.6055 26.4917 59.7812 26.1636 59.9688C25.8823 59.8516 25.6011 59.793 25.3198 59.793C25.0151 59.793 24.7104 59.8516 24.4058 59.9688C24.0308 59.8047 23.7261 59.5469 23.4917 59.1953C23.2573 58.8672 23.0581 58.4922 22.894 58.0703C22.73 57.6719 22.5776 57.2617 22.437 56.8398C22.3198 56.418 22.1792 56.0312 22.0151 55.6797V55.1172C22.0151 54.5781 21.9683 54.0625 21.8745 53.5703C21.8042 53.0547 21.769 52.5273 21.769 51.9883C21.769 51.7773 21.7808 51.5547 21.8042 51.3203C21.8511 51.0859 21.9214 50.8633 22.0151 50.6523C21.9683 50.4414 21.9448 50.2422 21.9448 50.0547V49.3867C21.9448 48.6836 21.9683 47.9805 22.0151 47.2773C22.0854 46.5742 22.1206 45.8711 22.1206 45.168C22.1206 44.6523 22.0854 44.125 22.0151 43.5859C21.8979 43.6328 21.7925 43.6797 21.6987 43.7266C21.605 43.7734 21.4995 43.7969 21.3823 43.7969C21.2651 43.7969 21.1479 43.7852 21.0308 43.7617C20.937 43.7383 20.8433 43.7148 20.7495 43.6914C20.5151 43.4805 20.3511 43.2227 20.2573 42.918C20.1636 42.6133 20.0347 42.332 19.8706 42.0742C19.8706 41.6289 19.9409 41.2656 20.0815 40.9844C20.1987 40.6797 20.3511 40.4102 20.5386 40.1758C20.7261 39.918 20.9136 39.6719 21.1011 39.4375C21.312 39.2031 21.4878 38.9102 21.6284 38.5586H21.769C22.144 38.5586 22.519 38.4414 22.894 38.207C23.269 37.9492 23.6909 37.8203 24.1597 37.8203C24.3237 37.6094 24.5464 37.4336 24.8276 37.293C25.1089 37.1289 25.4019 37 25.7065 36.9062C26.0347 36.8125 26.3511 36.7539 26.6558 36.7305C26.9839 36.6836 27.2886 36.6602 27.5698 36.6602C27.6636 36.4961 27.8042 36.3906 27.9917 36.3438C28.1792 36.2734 28.3667 36.2148 28.5542 36.168C28.7651 36.0977 28.9526 36.0391 29.1167 35.9922C29.3042 35.9219 29.4565 35.8047 29.5737 35.6406C29.7612 35.6875 29.937 35.7109 30.1011 35.7109C30.4058 35.7109 30.6987 35.6758 30.98 35.6055C31.2612 35.5117 31.5425 35.418 31.8237 35.3242C32.105 35.207 32.3862 35.1016 32.6675 35.0078C32.9722 34.9141 33.2886 34.8672 33.6167 34.8672C33.7339 34.8672 33.8511 34.8789 33.9683 34.9023C34.0854 34.9023 34.2026 34.9023 34.3198 34.9023C34.5073 34.9023 34.6128 34.832 34.6362 34.6914C34.6831 34.5508 34.7651 34.4453 34.8823 34.375C34.9526 34.3984 35.0815 34.4102 35.269 34.4102C35.7378 34.4102 36.1948 34.375 36.6401 34.3047C37.0854 34.2109 37.5425 34.1641 38.0112 34.1641C38.2222 34.1641 38.4331 34.1758 38.644 34.1992C38.855 34.2227 39.0659 34.2812 39.2769 34.375C39.3237 34.3047 39.3706 34.2461 39.4175 34.1992C39.4644 34.1523 39.4995 34.0938 39.5229 34.0234C40.6714 34.0938 41.7495 34.3281 42.7573 34.7266C43.7886 35.125 44.855 35.4766 45.9565 35.7812C46.0972 35.9922 46.2612 36.1797 46.4487 36.3438L47.0464 36.8359C47.2573 37 47.4565 37.1641 47.644 37.3281C47.8315 37.4922 47.9956 37.6914 48.1362 37.9258V38.4531Z" fill="#282828"/>
<path d="M76.0623 59.6383C76.0623 59.9664 76.0505 60.2946 76.0271 60.6227C76.0037 60.9508 75.9685 61.2789 75.9216 61.6071C75.7576 61.8414 75.5935 62.0524 75.4294 62.2399C75.2888 62.4039 75.1951 62.6149 75.1482 62.8727C74.8904 63.0602 74.5974 63.318 74.2693 63.6461C73.9646 63.9742 73.8357 64.3024 73.8826 64.6305H73.3904C73.1091 65.0524 72.781 65.4156 72.406 65.7203C72.031 66.025 71.6326 66.318 71.2107 66.5992L69.9802 67.4078C69.5818 67.6656 69.2068 67.9703 68.8552 68.3219C68.6677 68.3453 68.5154 68.3805 68.3982 68.4274C68.281 68.4742 68.1287 68.486 67.9412 68.4625C67.2146 68.9313 66.4529 69.3414 65.656 69.693C64.8826 70.0446 64.0974 70.3961 63.3005 70.7477C62.5271 71.0758 61.7537 71.4274 60.9802 71.8024C60.2068 72.1774 59.4685 72.611 58.7654 73.1031C58.6951 73.0797 58.6013 73.068 58.4841 73.068C58.2732 73.068 58.0623 73.1031 57.8513 73.1735C57.6404 73.2203 57.4294 73.2438 57.2185 73.2438C57.1248 73.2438 56.9958 73.2321 56.8318 73.2086C56.6912 73.1852 56.5857 73.15 56.5154 73.1031C56.3982 73.0328 56.2927 72.9274 56.199 72.7867C56.1052 72.6461 56.0349 72.4938 55.988 72.3297C55.9412 72.1422 55.906 71.9664 55.8826 71.8024C55.8591 71.6383 55.8474 71.4977 55.8474 71.3805C55.8474 71.2399 55.8591 71.0875 55.8826 70.9235C55.906 70.7594 55.9412 70.6071 55.988 70.4664C56.6677 70.4196 57.3474 70.2438 58.0271 69.9391C58.7302 69.6344 59.3982 69.3414 60.031 69.0602C60.1951 68.9899 60.324 68.9078 60.4177 68.8141C60.5349 68.6969 60.6521 68.6031 60.7693 68.5328C60.8865 68.4391 61.0154 68.3571 61.156 68.2867C61.2966 68.2164 61.4724 68.1813 61.6833 68.1813H61.7888C63.2654 67.5016 64.7068 66.7633 66.113 65.9664C67.5427 65.1696 68.9607 64.361 70.3669 63.5406C70.4373 63.3297 70.5427 63.1188 70.6833 62.9078C70.8474 62.6969 70.9998 62.4977 71.1404 62.3102C71.281 62.0992 71.4099 61.8883 71.5271 61.6774C71.6443 61.4664 71.7029 61.2555 71.7029 61.0446C71.7029 60.6227 71.5037 60.2711 71.1052 59.9899H70.9646C70.6833 59.9899 70.4373 59.9547 70.2263 59.8844C70.0154 59.7906 69.8162 59.7086 69.6287 59.6383C69.4412 59.5446 69.2302 59.4742 68.9958 59.4274C68.7615 59.3571 68.4919 59.3336 68.1873 59.3571C68.0701 59.2633 67.8826 59.1813 67.6248 59.111C67.3669 59.0406 67.156 59.0055 66.9919 59.0055C66.1482 59.0055 65.3162 59.0641 64.4958 59.1813C63.6755 59.275 62.8552 59.3336 62.0349 59.3571C61.824 59.4742 61.6248 59.5797 61.4373 59.6735C61.2498 59.7672 61.0271 59.8141 60.7693 59.8141C60.6521 59.8141 60.5466 59.8141 60.4529 59.8141C60.3591 59.7906 60.2537 59.7672 60.1365 59.7438C59.6912 59.9313 59.1873 60.0953 58.6248 60.236C58.0623 60.3531 57.4998 60.5055 56.9373 60.693C56.3982 60.8571 55.8943 61.068 55.4255 61.3258C54.9568 61.5836 54.5935 61.9352 54.3357 62.3805C54.3357 62.4977 54.3591 62.6031 54.406 62.6969C54.4529 62.7672 54.4763 62.861 54.4763 62.9781V63.1188C54.3357 63.2594 54.2419 63.4235 54.1951 63.611C54.1482 63.775 54.113 63.9508 54.0896 64.1383C54.0662 64.3024 54.031 64.4781 53.9841 64.6656C53.9607 64.8297 53.8787 64.9938 53.738 65.1578C53.8318 65.5094 53.8787 65.8961 53.8787 66.318C53.8787 66.7867 53.8435 67.2555 53.7732 67.7242C53.7263 68.193 53.7029 68.6617 53.7029 69.1305C53.7029 69.5758 53.7498 69.9742 53.8435 70.3258C53.7029 70.4664 53.6443 70.6774 53.6677 70.9586C53.6912 71.2399 53.6326 71.4508 53.4919 71.5914C53.4919 71.7789 53.5388 71.9078 53.6326 71.9781C53.7498 72.0485 53.8201 72.1656 53.8435 72.3297C53.7498 72.7281 53.7029 73.1617 53.7029 73.6305C53.7029 74.3102 53.7732 75.0016 53.9138 75.7047C54.0779 76.4078 54.2654 77.0992 54.4763 77.7789C54.8513 77.6617 55.2498 77.568 55.6716 77.4977C56.1169 77.4039 56.5388 77.3571 56.9373 77.3571C57.0076 77.3571 57.0779 77.3688 57.1482 77.3922C57.2185 77.3922 57.2888 77.3922 57.3591 77.3922C57.406 77.65 57.4998 77.8844 57.6404 78.0953C57.781 78.3063 57.9099 78.5406 58.0271 78.7985C57.9099 78.9625 57.8044 79.0914 57.7107 79.1852C57.6404 79.3024 57.6052 79.4547 57.6052 79.6422C57.2771 79.6656 57.0076 79.7477 56.7966 79.8883C56.5857 80.0524 56.3513 80.2281 56.0935 80.4156H55.9529C55.5544 80.4156 55.2263 80.486 54.9685 80.6266C54.7107 80.7906 54.4177 80.9664 54.0896 81.1539C53.8083 81.0367 53.5271 80.9781 53.2458 80.9781C52.9412 80.9781 52.6365 81.0367 52.3318 81.1539C51.9568 80.9899 51.6521 80.7321 51.4177 80.3805C51.1833 80.0524 50.9841 79.6774 50.8201 79.2555C50.656 78.8571 50.5037 78.4469 50.363 78.025C50.2458 77.6031 50.1052 77.2164 49.9412 76.8649V76.3024C49.9412 75.7633 49.8943 75.2477 49.8005 74.7555C49.7302 74.2399 49.6951 73.7125 49.6951 73.1735C49.6951 72.9625 49.7068 72.7399 49.7302 72.5055C49.7771 72.2711 49.8474 72.0485 49.9412 71.8375C49.8943 71.6266 49.8708 71.4274 49.8708 71.2399V70.5719C49.8708 69.8688 49.8943 69.1656 49.9412 68.4625C50.0115 67.7594 50.0466 67.0563 50.0466 66.3531C50.0466 65.8375 50.0115 65.3102 49.9412 64.7711C49.824 64.818 49.7185 64.8649 49.6248 64.9117C49.531 64.9586 49.4255 64.9821 49.3083 64.9821C49.1912 64.9821 49.074 64.9703 48.9568 64.9469C48.863 64.9235 48.7693 64.9 48.6755 64.8766C48.4412 64.6656 48.2771 64.4078 48.1833 64.1031C48.0896 63.7985 47.9607 63.5172 47.7966 63.2594C47.7966 62.8141 47.8669 62.4508 48.0076 62.1696C48.1248 61.8649 48.2771 61.5953 48.4646 61.361C48.6521 61.1031 48.8396 60.8571 49.0271 60.6227C49.238 60.3883 49.4138 60.0953 49.5544 59.7438H49.6951C50.0701 59.7438 50.4451 59.6266 50.8201 59.3922C51.1951 59.1344 51.6169 59.0055 52.0857 59.0055C52.2498 58.7946 52.4724 58.6188 52.7537 58.4781C53.0349 58.3141 53.3279 58.1852 53.6326 58.0914C53.9607 57.9977 54.2771 57.9391 54.5818 57.9156C54.9099 57.8688 55.2146 57.8453 55.4958 57.8453C55.5896 57.6813 55.7302 57.5758 55.9177 57.5289C56.1052 57.4586 56.2927 57.4 56.4802 57.3531C56.6912 57.2828 56.8787 57.2242 57.0427 57.1774C57.2302 57.1071 57.3826 56.9899 57.4998 56.8258C57.6873 56.8727 57.863 56.8961 58.0271 56.8961C58.3318 56.8961 58.6248 56.861 58.906 56.7906C59.1873 56.6969 59.4685 56.6031 59.7498 56.5094C60.031 56.3922 60.3123 56.2867 60.5935 56.193C60.8982 56.0992 61.2146 56.0524 61.5427 56.0524C61.6599 56.0524 61.7771 56.0641 61.8943 56.0875C62.0115 56.0875 62.1287 56.0875 62.2458 56.0875C62.4333 56.0875 62.5388 56.0172 62.5623 55.8766C62.6091 55.736 62.6912 55.6305 62.8083 55.5602C62.8787 55.5836 63.0076 55.5953 63.1951 55.5953C63.6638 55.5953 64.1208 55.5602 64.5662 55.4899C65.0115 55.3961 65.4685 55.3492 65.9373 55.3492C66.1482 55.3492 66.3591 55.361 66.5701 55.3844C66.781 55.4078 66.9919 55.4664 67.2029 55.5602C67.2498 55.4899 67.2966 55.4313 67.3435 55.3844C67.3904 55.3375 67.4255 55.2789 67.449 55.2086C68.5974 55.2789 69.6755 55.5133 70.6833 55.9117C71.7146 56.3102 72.781 56.6617 73.8826 56.9664C74.0232 57.1774 74.1873 57.3649 74.3748 57.5289L74.9724 58.0211C75.1833 58.1852 75.3826 58.3492 75.5701 58.5133C75.7576 58.6774 75.9216 58.8766 76.0623 59.111V59.6383Z" fill="#282828"/>
</svg>
