<svg width="100" height="108" viewBox="0 0 100 108" fill="none" xmlns="http://www.w3.org/2000/svg">
<rect y="4" width="100" height="100" fill="#3A3A3A"/>
<path d="M48.9141 38.4531C48.9141 38.7812 48.9023 39.1094 48.8789 39.4375C48.8555 39.7656 48.8203 40.0938 48.7734 40.4219C48.6094 40.6562 48.4453 40.8672 48.2812 41.0547C48.1406 41.2188 48.0469 41.4297 48 41.6875C47.7422 41.875 47.4492 42.1328 47.1211 42.4609C46.8164 42.7891 46.6875 43.1172 46.7344 43.4453H46.2422C45.9609 43.8672 45.6328 44.2305 45.2578 44.5352C44.8828 44.8398 44.4844 45.1328 44.0625 45.4141L42.832 46.2227C42.4336 46.4805 42.0586 46.7852 41.707 47.1367C41.5195 47.1602 41.3672 47.1953 41.25 47.2422C41.1328 47.2891 40.9805 47.3008 40.793 47.2773C40.0664 47.7461 39.3047 48.1562 38.5078 48.5078C37.7344 48.8594 36.9492 49.2109 36.1523 49.5625C35.3789 49.8906 34.6055 50.2422 33.832 50.6172C33.0586 50.9922 32.3203 51.4258 31.6172 51.918C31.5469 51.8945 31.4531 51.8828 31.3359 51.8828C31.125 51.8828 30.9141 51.918 30.7031 51.9883C30.4922 52.0352 30.2812 52.0586 30.0703 52.0586C29.9766 52.0586 29.8477 52.0469 29.6836 52.0234C29.543 52 29.4375 51.9648 29.3672 51.918C29.25 51.8477 29.1445 51.7422 29.0508 51.6016C28.957 51.4609 28.8867 51.3086 28.8398 51.1445C28.793 50.957 28.7578 50.7812 28.7344 50.6172C28.7109 50.4531 28.6992 50.3125 28.6992 50.1953C28.6992 50.0547 28.7109 49.9023 28.7344 49.7383C28.7578 49.5742 28.793 49.4219 28.8398 49.2812C29.5195 49.2344 30.1992 49.0586 30.8789 48.7539C31.582 48.4492 32.25 48.1562 32.8828 47.875C33.0469 47.8047 33.1758 47.7227 33.2695 47.6289C33.3867 47.5117 33.5039 47.418 33.6211 47.3477C33.7383 47.2539 33.8672 47.1719 34.0078 47.1016C34.1484 47.0312 34.3242 46.9961 34.5352 46.9961H34.6406C36.1172 46.3164 37.5586 45.5781 38.9648 44.7812C40.3945 43.9844 41.8125 43.1758 43.2188 42.3555C43.2891 42.1445 43.3945 41.9336 43.5352 41.7227C43.6992 41.5117 43.8516 41.3125 43.9922 41.125C44.1328 40.9141 44.2617 40.7031 44.3789 40.4922C44.4961 40.2812 44.5547 40.0703 44.5547 39.8594C44.5547 39.4375 44.3555 39.0859 43.957 38.8047H43.8164C43.5352 38.8047 43.2891 38.7695 43.0781 38.6992C42.8672 38.6055 42.668 38.5234 42.4805 38.4531C42.293 38.3594 42.082 38.2891 41.8477 38.2422C41.6133 38.1719 41.3438 38.1484 41.0391 38.1719C40.9219 38.0781 40.7344 37.9961 40.4766 37.9258C40.2188 37.8555 40.0078 37.8203 39.8438 37.8203C39 37.8203 38.168 37.8789 37.3477 37.9961C36.5273 38.0898 35.707 38.1484 34.8867 38.1719C34.6758 38.2891 34.4766 38.3945 34.2891 38.4883C34.1016 38.582 33.8789 38.6289 33.6211 38.6289C33.5039 38.6289 33.3984 38.6289 33.3047 38.6289C33.2109 38.6055 33.1055 38.582 32.9883 38.5586C32.543 38.7461 32.0391 38.9102 31.4766 39.0508C30.9141 39.168 30.3516 39.3203 29.7891 39.5078C29.25 39.6719 28.7461 39.8828 28.2773 40.1406C27.8086 40.3984 27.4453 40.75 27.1875 41.1953C27.1875 41.3125 27.2109 41.418 27.2578 41.5117C27.3047 41.582 27.3281 41.6758 27.3281 41.793V41.9336C27.1875 42.0742 27.0938 42.2383 27.0469 42.4258C27 42.5898 26.9648 42.7656 26.9414 42.9531C26.918 43.1172 26.8828 43.293 26.8359 43.4805C26.8125 43.6445 26.7305 43.8086 26.5898 43.9727C26.6836 44.3242 26.7305 44.7109 26.7305 45.1328C26.7305 45.6016 26.6953 46.0703 26.625 46.5391C26.5781 47.0078 26.5547 47.4766 26.5547 47.9453C26.5547 48.3906 26.6016 48.7891 26.6953 49.1406C26.5547 49.2812 26.4961 49.4922 26.5195 49.7734C26.543 50.0547 26.4844 50.2656 26.3438 50.4062C26.3438 50.5938 26.3906 50.7227 26.4844 50.793C26.6016 50.8633 26.6719 50.9805 26.6953 51.1445C26.6016 51.543 26.5547 51.9766 26.5547 52.4453C26.5547 53.125 26.625 53.8164 26.7656 54.5195C26.9297 55.2227 27.1172 55.9141 27.3281 56.5938C27.7031 56.4766 28.1016 56.3828 28.5234 56.3125C28.9688 56.2188 29.3906 56.1719 29.7891 56.1719C29.8594 56.1719 29.9297 56.1836 30 56.207C30.0703 56.207 30.1406 56.207 30.2109 56.207C30.2578 56.4648 30.3516 56.6992 30.4922 56.9102C30.6328 57.1211 30.7617 57.3555 30.8789 57.6133C30.7617 57.7773 30.6562 57.9062 30.5625 58C30.4922 58.1172 30.457 58.2695 30.457 58.457C30.1289 58.4805 29.8594 58.5625 29.6484 58.7031C29.4375 58.8672 29.2031 59.043 28.9453 59.2305H28.8047C28.4062 59.2305 28.0781 59.3008 27.8203 59.4414C27.5625 59.6055 27.2695 59.7812 26.9414 59.9688C26.6602 59.8516 26.3789 59.793 26.0977 59.793C25.793 59.793 25.4883 59.8516 25.1836 59.9688C24.8086 59.8047 24.5039 59.5469 24.2695 59.1953C24.0352 58.8672 23.8359 58.4922 23.6719 58.0703C23.5078 57.6719 23.3555 57.2617 23.2148 56.8398C23.0977 56.418 22.957 56.0312 22.793 55.6797V55.1172C22.793 54.5781 22.7461 54.0625 22.6523 53.5703C22.582 53.0547 22.5469 52.5273 22.5469 51.9883C22.5469 51.7773 22.5586 51.5547 22.582 51.3203C22.6289 51.0859 22.6992 50.8633 22.793 50.6523C22.7461 50.4414 22.7227 50.2422 22.7227 50.0547V49.3867C22.7227 48.6836 22.7461 47.9805 22.793 47.2773C22.8633 46.5742 22.8984 45.8711 22.8984 45.168C22.8984 44.6523 22.8633 44.125 22.793 43.5859C22.6758 43.6328 22.5703 43.6797 22.4766 43.7266C22.3828 43.7734 22.2773 43.7969 22.1602 43.7969C22.043 43.7969 21.9258 43.7852 21.8086 43.7617C21.7148 43.7383 21.6211 43.7148 21.5273 43.6914C21.293 43.4805 21.1289 43.2227 21.0352 42.918C20.9414 42.6133 20.8125 42.332 20.6484 42.0742C20.6484 41.6289 20.7188 41.2656 20.8594 40.9844C20.9766 40.6797 21.1289 40.4102 21.3164 40.1758C21.5039 39.918 21.6914 39.6719 21.8789 39.4375C22.0898 39.2031 22.2656 38.9102 22.4062 38.5586H22.5469C22.9219 38.5586 23.2969 38.4414 23.6719 38.207C24.0469 37.9492 24.4688 37.8203 24.9375 37.8203C25.1016 37.6094 25.3242 37.4336 25.6055 37.293C25.8867 37.1289 26.1797 37 26.4844 36.9062C26.8125 36.8125 27.1289 36.7539 27.4336 36.7305C27.7617 36.6836 28.0664 36.6602 28.3477 36.6602C28.4414 36.4961 28.582 36.3906 28.7695 36.3438C28.957 36.2734 29.1445 36.2148 29.332 36.168C29.543 36.0977 29.7305 36.0391 29.8945 35.9922C30.082 35.9219 30.2344 35.8047 30.3516 35.6406C30.5391 35.6875 30.7148 35.7109 30.8789 35.7109C31.1836 35.7109 31.4766 35.6758 31.7578 35.6055C32.0391 35.5117 32.3203 35.418 32.6016 35.3242C32.8828 35.207 33.1641 35.1016 33.4453 35.0078C33.75 34.9141 34.0664 34.8672 34.3945 34.8672C34.5117 34.8672 34.6289 34.8789 34.7461 34.9023C34.8633 34.9023 34.9805 34.9023 35.0977 34.9023C35.2852 34.9023 35.3906 34.832 35.4141 34.6914C35.4609 34.5508 35.543 34.4453 35.6602 34.375C35.7305 34.3984 35.8594 34.4102 36.0469 34.4102C36.5156 34.4102 36.9727 34.375 37.418 34.3047C37.8633 34.2109 38.3203 34.1641 38.7891 34.1641C39 34.1641 39.2109 34.1758 39.4219 34.1992C39.6328 34.2227 39.8438 34.2812 40.0547 34.375C40.1016 34.3047 40.1484 34.2461 40.1953 34.1992C40.2422 34.1523 40.2773 34.0938 40.3008 34.0234C41.4492 34.0938 42.5273 34.3281 43.5352 34.7266C44.5664 35.125 45.6328 35.4766 46.7344 35.7812C46.875 35.9922 47.0391 36.1797 47.2266 36.3438L47.8242 36.8359C48.0352 37 48.2344 37.1641 48.4219 37.3281C48.6094 37.4922 48.7734 37.6914 48.9141 37.9258V38.4531Z" fill="#D0CFCF"/>
<path d="M77.9141 60.4531C77.9141 60.7812 77.9023 61.1094 77.8789 61.4375C77.8555 61.7656 77.8203 62.0938 77.7734 62.4219C77.6094 62.6562 77.4453 62.8672 77.2812 63.0547C77.1406 63.2188 77.0469 63.4297 77 63.6875C76.7422 63.875 76.4492 64.1328 76.1211 64.4609C75.8164 64.7891 75.6875 65.1172 75.7344 65.4453H75.2422C74.9609 65.8672 74.6328 66.2305 74.2578 66.5352C73.8828 66.8398 73.4844 67.1328 73.0625 67.4141L71.832 68.2227C71.4336 68.4805 71.0586 68.7852 70.707 69.1367C70.5195 69.1602 70.3672 69.1953 70.25 69.2422C70.1328 69.2891 69.9805 69.3008 69.793 69.2773C69.0664 69.7461 68.3047 70.1562 67.5078 70.5078C66.7344 70.8594 65.9492 71.2109 65.1523 71.5625C64.3789 71.8906 63.6055 72.2422 62.832 72.6172C62.0586 72.9922 61.3203 73.4258 60.6172 73.918C60.5469 73.8945 60.4531 73.8828 60.3359 73.8828C60.125 73.8828 59.9141 73.918 59.7031 73.9883C59.4922 74.0352 59.2812 74.0586 59.0703 74.0586C58.9766 74.0586 58.8477 74.0469 58.6836 74.0234C58.543 74 58.4375 73.9648 58.3672 73.918C58.25 73.8477 58.1445 73.7422 58.0508 73.6016C57.957 73.4609 57.8867 73.3086 57.8398 73.1445C57.793 72.957 57.7578 72.7812 57.7344 72.6172C57.7109 72.4531 57.6992 72.3125 57.6992 72.1953C57.6992 72.0547 57.7109 71.9023 57.7344 71.7383C57.7578 71.5742 57.793 71.4219 57.8398 71.2812C58.5195 71.2344 59.1992 71.0586 59.8789 70.7539C60.582 70.4492 61.25 70.1562 61.8828 69.875C62.0469 69.8047 62.1758 69.7227 62.2695 69.6289C62.3867 69.5117 62.5039 69.418 62.6211 69.3477C62.7383 69.2539 62.8672 69.1719 63.0078 69.1016C63.1484 69.0312 63.3242 68.9961 63.5352 68.9961H63.6406C65.1172 68.3164 66.5586 67.5781 67.9648 66.7812C69.3945 65.9844 70.8125 65.1758 72.2188 64.3555C72.2891 64.1445 72.3945 63.9336 72.5352 63.7227C72.6992 63.5117 72.8516 63.3125 72.9922 63.125C73.1328 62.9141 73.2617 62.7031 73.3789 62.4922C73.4961 62.2812 73.5547 62.0703 73.5547 61.8594C73.5547 61.4375 73.3555 61.0859 72.957 60.8047H72.8164C72.5352 60.8047 72.2891 60.7695 72.0781 60.6992C71.8672 60.6055 71.668 60.5234 71.4805 60.4531C71.293 60.3594 71.082 60.2891 70.8477 60.2422C70.6133 60.1719 70.3438 60.1484 70.0391 60.1719C69.9219 60.0781 69.7344 59.9961 69.4766 59.9258C69.2188 59.8555 69.0078 59.8203 68.8438 59.8203C68 59.8203 67.168 59.8789 66.3477 59.9961C65.5273 60.0898 64.707 60.1484 63.8867 60.1719C63.6758 60.2891 63.4766 60.3945 63.2891 60.4883C63.1016 60.582 62.8789 60.6289 62.6211 60.6289C62.5039 60.6289 62.3984 60.6289 62.3047 60.6289C62.2109 60.6055 62.1055 60.582 61.9883 60.5586C61.543 60.7461 61.0391 60.9102 60.4766 61.0508C59.9141 61.168 59.3516 61.3203 58.7891 61.5078C58.25 61.6719 57.7461 61.8828 57.2773 62.1406C56.8086 62.3984 56.4453 62.75 56.1875 63.1953C56.1875 63.3125 56.2109 63.418 56.2578 63.5117C56.3047 63.582 56.3281 63.6758 56.3281 63.793V63.9336C56.1875 64.0742 56.0938 64.2383 56.0469 64.4258C56 64.5898 55.9648 64.7656 55.9414 64.9531C55.918 65.1172 55.8828 65.293 55.8359 65.4805C55.8125 65.6445 55.7305 65.8086 55.5898 65.9727C55.6836 66.3242 55.7305 66.7109 55.7305 67.1328C55.7305 67.6016 55.6953 68.0703 55.625 68.5391C55.5781 69.0078 55.5547 69.4766 55.5547 69.9453C55.5547 70.3906 55.6016 70.7891 55.6953 71.1406C55.5547 71.2812 55.4961 71.4922 55.5195 71.7734C55.543 72.0547 55.4844 72.2656 55.3438 72.4062C55.3438 72.5938 55.3906 72.7227 55.4844 72.793C55.6016 72.8633 55.6719 72.9805 55.6953 73.1445C55.6016 73.543 55.5547 73.9766 55.5547 74.4453C55.5547 75.125 55.625 75.8164 55.7656 76.5195C55.9297 77.2227 56.1172 77.9141 56.3281 78.5938C56.7031 78.4766 57.1016 78.3828 57.5234 78.3125C57.9688 78.2188 58.3906 78.1719 58.7891 78.1719C58.8594 78.1719 58.9297 78.1836 59 78.207C59.0703 78.207 59.1406 78.207 59.2109 78.207C59.2578 78.4648 59.3516 78.6992 59.4922 78.9102C59.6328 79.1211 59.7617 79.3555 59.8789 79.6133C59.7617 79.7773 59.6562 79.9062 59.5625 80C59.4922 80.1172 59.457 80.2695 59.457 80.457C59.1289 80.4805 58.8594 80.5625 58.6484 80.7031C58.4375 80.8672 58.2031 81.043 57.9453 81.2305H57.8047C57.4062 81.2305 57.0781 81.3008 56.8203 81.4414C56.5625 81.6055 56.2695 81.7812 55.9414 81.9688C55.6602 81.8516 55.3789 81.793 55.0977 81.793C54.793 81.793 54.4883 81.8516 54.1836 81.9688C53.8086 81.8047 53.5039 81.5469 53.2695 81.1953C53.0352 80.8672 52.8359 80.4922 52.6719 80.0703C52.5078 79.6719 52.3555 79.2617 52.2148 78.8398C52.0977 78.418 51.957 78.0312 51.793 77.6797V77.1172C51.793 76.5781 51.7461 76.0625 51.6523 75.5703C51.582 75.0547 51.5469 74.5273 51.5469 73.9883C51.5469 73.7773 51.5586 73.5547 51.582 73.3203C51.6289 73.0859 51.6992 72.8633 51.793 72.6523C51.7461 72.4414 51.7227 72.2422 51.7227 72.0547V71.3867C51.7227 70.6836 51.7461 69.9805 51.793 69.2773C51.8633 68.5742 51.8984 67.8711 51.8984 67.168C51.8984 66.6523 51.8633 66.125 51.793 65.5859C51.6758 65.6328 51.5703 65.6797 51.4766 65.7266C51.3828 65.7734 51.2773 65.7969 51.1602 65.7969C51.043 65.7969 50.9258 65.7852 50.8086 65.7617C50.7148 65.7383 50.6211 65.7148 50.5273 65.6914C50.293 65.4805 50.1289 65.2227 50.0352 64.918C49.9414 64.6133 49.8125 64.332 49.6484 64.0742C49.6484 63.6289 49.7188 63.2656 49.8594 62.9844C49.9766 62.6797 50.1289 62.4102 50.3164 62.1758C50.5039 61.918 50.6914 61.6719 50.8789 61.4375C51.0898 61.2031 51.2656 60.9102 51.4062 60.5586H51.5469C51.9219 60.5586 52.2969 60.4414 52.6719 60.207C53.0469 59.9492 53.4688 59.8203 53.9375 59.8203C54.1016 59.6094 54.3242 59.4336 54.6055 59.293C54.8867 59.1289 55.1797 59 55.4844 58.9062C55.8125 58.8125 56.1289 58.7539 56.4336 58.7305C56.7617 58.6836 57.0664 58.6602 57.3477 58.6602C57.4414 58.4961 57.582 58.3906 57.7695 58.3438C57.957 58.2734 58.1445 58.2148 58.332 58.168C58.543 58.0977 58.7305 58.0391 58.8945 57.9922C59.082 57.9219 59.2344 57.8047 59.3516 57.6406C59.5391 57.6875 59.7148 57.7109 59.8789 57.7109C60.1836 57.7109 60.4766 57.6758 60.7578 57.6055C61.0391 57.5117 61.3203 57.418 61.6016 57.3242C61.8828 57.207 62.1641 57.1016 62.4453 57.0078C62.75 56.9141 63.0664 56.8672 63.3945 56.8672C63.5117 56.8672 63.6289 56.8789 63.7461 56.9023C63.8633 56.9023 63.9805 56.9023 64.0977 56.9023C64.2852 56.9023 64.3906 56.832 64.4141 56.6914C64.4609 56.5508 64.543 56.4453 64.6602 56.375C64.7305 56.3984 64.8594 56.4102 65.0469 56.4102C65.5156 56.4102 65.9727 56.375 66.418 56.3047C66.8633 56.2109 67.3203 56.1641 67.7891 56.1641C68 56.1641 68.2109 56.1758 68.4219 56.1992C68.6328 56.2227 68.8438 56.2812 69.0547 56.375C69.1016 56.3047 69.1484 56.2461 69.1953 56.1992C69.2422 56.1523 69.2773 56.0938 69.3008 56.0234C70.4492 56.0938 71.5273 56.3281 72.5352 56.7266C73.5664 57.125 74.6328 57.4766 75.7344 57.7812C75.875 57.9922 76.0391 58.1797 76.2266 58.3438L76.8242 58.8359C77.0352 59 77.2344 59.1641 77.4219 59.3281C77.6094 59.4922 77.7734 59.6914 77.9141 59.9258V60.4531Z" fill="#D0CFCF"/>
</svg>
